# Blender v2.93.4 OBJ File: ''
# www.blender.org
o Cube_Cube.001
v -1.000000 1.838037 1.000000
v -1.000000 2.246489 0.600000
v -1.000000 1.838037 0.600000
v 0.600000 2.246489 1.000000
v 1.000000 2.246489 0.600000
v 0.600000 2.246489 0.600000
v -0.600000 -2.246489 1.000000
v -1.000000 -2.246489 0.600000
v -0.600000 -2.246489 0.600000
v 1.000000 -1.838037 -1.000000
v 0.600000 -2.246489 -1.000000
v 0.600000 -1.838037 -1.000000
v -1.000000 -1.838037 1.000000
v -0.600000 -1.838037 1.000000
v 0.600000 -1.838037 1.000000
v 1.000000 -2.246489 1.000000
v 1.000000 -1.838037 1.000000
v 0.200000 -1.838037 1.000000
v 0.600000 -2.246489 1.000000
v -0.200000 -1.838037 1.000000
v 0.200000 -2.246489 1.000000
v -0.200000 -2.246489 1.000000
v -0.600000 -1.838037 -1.000000
v -1.000000 -2.246489 -1.000000
v -1.000000 -1.838037 -1.000000
v -0.200000 -1.838037 -1.000000
v -0.600000 -2.246489 -1.000000
v 0.200000 -1.838037 -1.000000
v -0.200000 -2.246489 -1.000000
v 0.200000 -2.246489 -1.000000
v -0.600000 -2.246489 -0.600000
v -0.600000 -2.246489 -0.200000
v -1.000000 -2.246489 -0.600000
v -0.600000 -2.246489 0.200000
v -1.000000 -2.246489 -0.200000
v -1.000000 -2.246489 0.200000
v 1.000000 -2.246489 -0.600000
v 1.000000 -2.246489 -1.000000
v 0.600000 -2.246489 -0.600000
v 0.200000 -2.246489 -0.600000
v -0.200000 -2.246489 -0.600000
v 1.000000 -2.246489 -0.200000
v 0.600000 -2.246489 -0.200000
v 0.200000 -2.246489 -0.200000
v -0.200000 -2.246489 -0.200000
v 1.000000 -2.246489 0.200000
v 0.600000 -2.246489 0.200000
v 0.200000 -2.246489 0.200000
v -0.200000 -2.246489 0.200000
v 1.000000 -2.246489 0.600000
v 0.600000 -2.246489 0.600000
v 0.200000 -2.246489 0.600000
v -0.200000 -2.246489 0.600000
v 0.600000 2.246489 -0.600000
v 1.000000 2.246489 -1.000000
v 0.600000 2.246489 -1.000000
v 0.600000 2.246489 -0.200000
v 1.000000 2.246489 -0.600000
v 0.600000 2.246489 0.200000
v 1.000000 2.246489 -0.200000
v 1.000000 2.246489 0.200000
v -1.000000 2.246489 -0.600000
v -0.600000 2.246489 -1.000000
v -1.000000 2.246489 -1.000000
v -0.600000 2.246489 -0.600000
v -0.200000 2.246489 -1.000000
v -0.200000 2.246489 -0.600000
v 0.200000 2.246489 -1.000000
v 0.200000 2.246489 -0.600000
v -1.000000 2.246489 -0.200000
v -0.600000 2.246489 -0.200000
v -0.200000 2.246489 -0.200000
v 0.200000 2.246489 -0.200000
v -1.000000 2.246489 0.200000
v -0.600000 2.246489 0.200000
v -0.200000 2.246489 0.200000
v 0.200000 2.246489 0.200000
v -0.600000 2.246489 0.600000
v -0.200000 2.246489 0.600000
v 0.200000 2.246489 0.600000
v -1.000000 2.246489 1.000000
v -0.600000 2.246489 1.000000
v -0.200000 2.246489 1.000000
v 0.200000 2.246489 1.000000
v -1.000000 1.838037 -0.600000
v -1.000000 1.838037 -1.000000
v -1.000000 1.838037 -0.200000
v -1.000000 1.838037 0.200000
v -1.000000 -1.838037 0.200000
v -1.000000 -1.838037 0.600000
v -1.000000 -1.429584 0.200000
v -1.000000 -1.429584 0.600000
v -1.000000 -1.021131 0.200000
v -1.000000 -1.021131 0.600000
v -1.000000 -0.612679 0.200000
v -1.000000 -0.612679 0.600000
v -1.000000 -0.204226 0.200000
v -1.000000 -0.204226 0.600000
v -1.000000 0.204226 0.200000
v -1.000000 0.204226 0.600000
v -1.000000 0.612679 0.200000
v -1.000000 0.612679 0.600000
v -1.000000 1.021131 0.200000
v -1.000000 1.021131 0.600000
v -1.000000 1.429584 0.200000
v -1.000000 1.429584 0.600000
v -1.000000 -1.838037 -0.200000
v -1.000000 -1.429584 -0.200000
v -1.000000 -1.021131 -0.200000
v -1.000000 -0.612679 -0.200000
v -1.000000 -0.204226 -0.200000
v -1.000000 0.204226 -0.200000
v -1.000000 0.612679 -0.200000
v -1.000000 1.021131 -0.200000
v -1.000000 1.429584 -0.200000
v -1.000000 -1.838037 -0.600000
v -1.000000 -1.429584 -0.600000
v -1.000000 -1.021131 -0.600000
v -1.000000 -0.612679 -0.600000
v -1.000000 -0.204226 -0.600000
v -1.000000 0.204226 -0.600000
v -1.000000 0.612679 -0.600000
v -1.000000 1.021131 -0.600000
v -1.000000 1.429584 -0.600000
v -1.000000 -1.429584 -1.000000
v -1.000000 -1.021131 -1.000000
v -1.000000 -0.612679 -1.000000
v -1.000000 -0.204226 -1.000000
v -1.000000 0.204226 -1.000000
v -1.000000 0.612679 -1.000000
v -1.000000 1.021131 -1.000000
v -1.000000 1.429584 -1.000000
v 0.200000 1.838037 -1.000000
v 0.600000 1.838037 -1.000000
v 0.200000 1.429584 -1.000000
v 0.600000 1.429584 -1.000000
v 0.200000 1.021131 -1.000000
v 0.600000 1.021131 -1.000000
v 0.200000 0.612679 -1.000000
v 0.600000 0.612679 -1.000000
v 0.200000 0.204226 -1.000000
v 0.600000 0.204226 -1.000000
v 0.200000 -0.204226 -1.000000
v 0.600000 -0.204226 -1.000000
v 0.200000 -0.612679 -1.000000
v 0.600000 -0.612679 -1.000000
v 0.200000 -1.021131 -1.000000
v 0.600000 -1.021131 -1.000000
v 0.200000 -1.429584 -1.000000
v 0.600000 -1.429584 -1.000000
v -0.200000 1.838037 -1.000000
v -0.200000 1.429584 -1.000000
v -0.200000 1.021131 -1.000000
v -0.200000 0.612679 -1.000000
v -0.200000 0.204226 -1.000000
v -0.200000 -0.204226 -1.000000
v -0.200000 -0.612679 -1.000000
v -0.200000 -1.021131 -1.000000
v -0.200000 -1.429584 -1.000000
v -0.600000 1.838037 -1.000000
v -0.600000 1.429584 -1.000000
v -0.600000 1.021131 -1.000000
v -0.600000 0.612679 -1.000000
v -0.600000 0.204226 -1.000000
v -0.600000 -0.204226 -1.000000
v -0.600000 -0.612679 -1.000000
v -0.600000 -1.021131 -1.000000
v -0.600000 -1.429584 -1.000000
v -0.200000 1.838037 1.000000
v -0.600000 1.838037 1.000000
v -0.200000 1.429584 1.000000
v -0.600000 1.429584 1.000000
v -0.200000 1.021131 1.000000
v -0.600000 1.021131 1.000000
v -0.200000 0.612679 1.000000
v -0.600000 0.612679 1.000000
v -0.200000 0.204226 1.000000
v -0.600000 0.204226 1.000000
v -0.200000 -0.204226 1.000000
v -0.600000 -0.204226 1.000000
v -0.200000 -0.612679 1.000000
v -0.600000 -0.612679 1.000000
v -0.200000 -1.021131 1.000000
v -0.600000 -1.021131 1.000000
v -0.200000 -1.429584 1.000000
v -0.600000 -1.429584 1.000000
v 0.200000 1.838037 1.000000
v 0.200000 1.429584 1.000000
v 0.200000 1.021131 1.000000
v 0.200000 0.612679 1.000000
v 0.200000 0.204226 1.000000
v 0.200000 -0.204226 1.000000
v 0.200000 -0.612679 1.000000
v 0.200000 -1.021131 1.000000
v 0.200000 -1.429584 1.000000
v 0.600000 1.838037 1.000000
v 0.600000 1.429584 1.000000
v 0.600000 1.021131 1.000000
v 0.600000 0.612679 1.000000
v 0.600000 0.204226 1.000000
v 0.600000 -0.204226 1.000000
v 0.600000 -0.612679 1.000000
v 0.600000 -1.021131 1.000000
v 0.600000 -1.429584 1.000000
v 1.000000 1.838037 1.000000
v 1.000000 2.246489 1.000000
v 1.000000 1.429584 1.000000
v 1.000000 1.021131 1.000000
v 1.000000 0.612679 1.000000
v 1.000000 0.204226 1.000000
v 1.000000 -0.204226 1.000000
v 1.000000 -0.612679 1.000000
v 1.000000 -1.021131 1.000000
v 1.000000 -1.429584 1.000000
v -1.000000 1.429584 1.000000
v -1.000000 1.021131 1.000000
v -1.000000 0.612679 1.000000
v -1.000000 0.204226 1.000000
v -1.000000 -0.204226 1.000000
v -1.000000 -0.612679 1.000000
v -1.000000 -1.021131 1.000000
v -1.000000 -1.429584 1.000000
v 1.000000 1.838037 -1.000000
v 1.000000 1.429584 -1.000000
v 1.000000 1.021131 -1.000000
v 1.000000 0.612679 -1.000000
v 1.000000 0.204226 -1.000000
v 1.000000 -0.204226 -1.000000
v 1.000000 -0.612679 -1.000000
v 1.000000 -1.021131 -1.000000
v 1.000000 -1.429584 -1.000000
v -1.000000 -2.246489 1.000000
vn 1.0000 0.0000 0.0000
vn 0.0000 -1.0000 -0.0000
vn 0.0000 1.0000 0.0000
vn 0.0000 -0.0000 1.0000
vn 0.0000 0.0000 -1.0000
s 1
f 1//1 3//1 2//1
f 4//2 6//2 5//2
f 7//3 9//3 8//3
f 10//4 12//4 11//4
f 13//5 14//5 7//5
f 15//5 17//5 16//5
f 18//5 15//5 19//5
f 20//5 18//5 21//5
f 14//5 20//5 22//5
f 23//4 25//4 24//4
f 26//4 23//4 27//4
f 28//4 26//4 29//4
f 12//4 28//4 30//4
f 31//3 27//3 24//3
f 32//3 31//3 33//3
f 34//3 32//3 35//3
f 9//3 34//3 36//3
f 37//3 38//3 11//3
f 39//3 11//3 30//3
f 40//3 30//3 29//3
f 41//3 29//3 27//3
f 42//3 37//3 39//3
f 43//3 39//3 40//3
f 44//3 40//3 41//3
f 45//3 41//3 31//3
f 46//3 42//3 43//3
f 47//3 43//3 44//3
f 48//3 44//3 45//3
f 49//3 45//3 32//3
f 50//3 46//3 47//3
f 51//3 47//3 48//3
f 52//3 48//3 49//3
f 53//3 49//3 34//3
f 16//3 50//3 51//3
f 19//3 51//3 52//3
f 21//3 52//3 53//3
f 22//3 53//3 9//3
f 54//2 56//2 55//2
f 57//2 54//2 58//2
f 59//2 57//2 60//2
f 6//2 59//2 61//2
f 62//2 64//2 63//2
f 65//2 63//2 66//2
f 67//2 66//2 68//2
f 69//2 68//2 56//2
f 70//2 62//2 65//2
f 71//2 65//2 67//2
f 72//2 67//2 69//2
f 73//2 69//2 54//2
f 74//2 70//2 71//2
f 75//2 71//2 72//2
f 76//2 72//2 73//2
f 77//2 73//2 57//2
f 2//2 74//2 75//2
f 78//2 75//2 76//2
f 79//2 76//2 77//2
f 80//2 77//2 59//2
f 81//2 2//2 78//2
f 82//2 78//2 79//2
f 83//2 79//2 80//2
f 84//2 80//2 6//2
f 85//1 86//1 64//1
f 87//1 85//1 62//1
f 88//1 87//1 70//1
f 3//1 88//1 74//1
f 8//1 36//1 89//1
f 90//1 89//1 91//1
f 92//1 91//1 93//1
f 94//1 93//1 95//1
f 96//1 95//1 97//1
f 98//1 97//1 99//1
f 100//1 99//1 101//1
f 102//1 101//1 103//1
f 104//1 103//1 105//1
f 106//1 105//1 88//1
f 36//1 35//1 107//1
f 89//1 107//1 108//1
f 91//1 108//1 109//1
f 93//1 109//1 110//1
f 95//1 110//1 111//1
f 97//1 111//1 112//1
f 99//1 112//1 113//1
f 101//1 113//1 114//1
f 103//1 114//1 115//1
f 105//1 115//1 87//1
f 35//1 33//1 116//1
f 107//1 116//1 117//1
f 108//1 117//1 118//1
f 109//1 118//1 119//1
f 110//1 119//1 120//1
f 111//1 120//1 121//1
f 112//1 121//1 122//1
f 113//1 122//1 123//1
f 114//1 123//1 124//1
f 115//1 124//1 85//1
f 33//1 24//1 25//1
f 116//1 25//1 125//1
f 117//1 125//1 126//1
f 118//1 126//1 127//1
f 119//1 127//1 128//1
f 120//1 128//1 129//1
f 121//1 129//1 130//1
f 122//1 130//1 131//1
f 123//1 131//1 132//1
f 124//1 132//1 86//1
f 56//4 68//4 133//4
f 134//4 133//4 135//4
f 136//4 135//4 137//4
f 138//4 137//4 139//4
f 140//4 139//4 141//4
f 142//4 141//4 143//4
f 144//4 143//4 145//4
f 146//4 145//4 147//4
f 148//4 147//4 149//4
f 150//4 149//4 28//4
f 68//4 66//4 151//4
f 133//4 151//4 152//4
f 135//4 152//4 153//4
f 137//4 153//4 154//4
f 139//4 154//4 155//4
f 141//4 155//4 156//4
f 143//4 156//4 157//4
f 145//4 157//4 158//4
f 147//4 158//4 159//4
f 149//4 159//4 26//4
f 66//4 63//4 160//4
f 151//4 160//4 161//4
f 152//4 161//4 162//4
f 153//4 162//4 163//4
f 154//4 163//4 164//4
f 155//4 164//4 165//4
f 156//4 165//4 166//4
f 157//4 166//4 167//4
f 158//4 167//4 168//4
f 159//4 168//4 23//4
f 63//4 64//4 86//4
f 160//4 86//4 132//4
f 161//4 132//4 131//4
f 162//4 131//4 130//4
f 163//4 130//4 129//4
f 164//4 129//4 128//4
f 165//4 128//4 127//4
f 166//4 127//4 126//4
f 167//4 126//4 125//4
f 168//4 125//4 25//4
f 82//5 83//5 169//5
f 170//5 169//5 171//5
f 172//5 171//5 173//5
f 174//5 173//5 175//5
f 176//5 175//5 177//5
f 178//5 177//5 179//5
f 180//5 179//5 181//5
f 182//5 181//5 183//5
f 184//5 183//5 185//5
f 186//5 185//5 20//5
f 83//5 84//5 187//5
f 169//5 187//5 188//5
f 171//5 188//5 189//5
f 173//5 189//5 190//5
f 175//5 190//5 191//5
f 177//5 191//5 192//5
f 179//5 192//5 193//5
f 181//5 193//5 194//5
f 183//5 194//5 195//5
f 185//5 195//5 18//5
f 84//5 4//5 196//5
f 187//5 196//5 197//5
f 188//5 197//5 198//5
f 189//5 198//5 199//5
f 190//5 199//5 200//5
f 191//5 200//5 201//5
f 192//5 201//5 202//5
f 193//5 202//5 203//5
f 194//5 203//5 204//5
f 195//5 204//5 15//5
f 4//5 206//5 205//5
f 196//5 205//5 207//5
f 197//5 207//5 208//5
f 198//5 208//5 209//5
f 199//5 209//5 210//5
f 200//5 210//5 211//5
f 201//5 211//5 212//5
f 202//5 212//5 213//5
f 203//5 213//5 214//5
f 204//5 214//5 17//5
f 81//5 82//5 170//5
f 1//5 170//5 172//5
f 215//5 172//5 174//5
f 216//5 174//5 176//5
f 217//5 176//5 178//5
f 218//5 178//5 180//5
f 219//5 180//5 182//5
f 220//5 182//5 184//5
f 221//5 184//5 186//5
f 222//5 186//5 14//5
f 55//4 56//4 134//4
f 223//4 134//4 136//4
f 224//4 136//4 138//4
f 225//4 138//4 140//4
f 226//4 140//4 142//4
f 227//4 142//4 144//4
f 228//4 144//4 146//4
f 229//4 146//4 148//4
f 230//4 148//4 150//4
f 231//4 150//4 12//4
f 232//1 8//1 90//1
f 13//1 90//1 92//1
f 222//1 92//1 94//1
f 221//1 94//1 96//1
f 220//1 96//1 98//1
f 219//1 98//1 100//1
f 218//1 100//1 102//1
f 217//1 102//1 104//1
f 216//1 104//1 106//1
f 215//1 106//1 3//1
f 1//1 2//1 81//1
f 4//2 5//2 206//2
f 7//3 8//3 232//3
f 10//4 11//4 38//4
f 13//5 7//5 232//5
f 15//5 16//5 19//5
f 18//5 19//5 21//5
f 20//5 21//5 22//5
f 14//5 22//5 7//5
f 23//4 24//4 27//4
f 26//4 27//4 29//4
f 28//4 29//4 30//4
f 12//4 30//4 11//4
f 31//3 24//3 33//3
f 32//3 33//3 35//3
f 34//3 35//3 36//3
f 9//3 36//3 8//3
f 37//3 11//3 39//3
f 39//3 30//3 40//3
f 40//3 29//3 41//3
f 41//3 27//3 31//3
f 42//3 39//3 43//3
f 43//3 40//3 44//3
f 44//3 41//3 45//3
f 45//3 31//3 32//3
f 46//3 43//3 47//3
f 47//3 44//3 48//3
f 48//3 45//3 49//3
f 49//3 32//3 34//3
f 50//3 47//3 51//3
f 51//3 48//3 52//3
f 52//3 49//3 53//3
f 53//3 34//3 9//3
f 16//3 51//3 19//3
f 19//3 52//3 21//3
f 21//3 53//3 22//3
f 22//3 9//3 7//3
f 54//2 55//2 58//2
f 57//2 58//2 60//2
f 59//2 60//2 61//2
f 6//2 61//2 5//2
f 62//2 63//2 65//2
f 65//2 66//2 67//2
f 67//2 68//2 69//2
f 69//2 56//2 54//2
f 70//2 65//2 71//2
f 71//2 67//2 72//2
f 72//2 69//2 73//2
f 73//2 54//2 57//2
f 74//2 71//2 75//2
f 75//2 72//2 76//2
f 76//2 73//2 77//2
f 77//2 57//2 59//2
f 2//2 75//2 78//2
f 78//2 76//2 79//2
f 79//2 77//2 80//2
f 80//2 59//2 6//2
f 81//2 78//2 82//2
f 82//2 79//2 83//2
f 83//2 80//2 84//2
f 84//2 6//2 4//2
f 85//1 64//1 62//1
f 87//1 62//1 70//1
f 88//1 70//1 74//1
f 3//1 74//1 2//1
f 8//1 89//1 90//1
f 90//1 91//1 92//1
f 92//1 93//1 94//1
f 94//1 95//1 96//1
f 96//1 97//1 98//1
f 98//1 99//1 100//1
f 100//1 101//1 102//1
f 102//1 103//1 104//1
f 104//1 105//1 106//1
f 106//1 88//1 3//1
f 36//1 107//1 89//1
f 89//1 108//1 91//1
f 91//1 109//1 93//1
f 93//1 110//1 95//1
f 95//1 111//1 97//1
f 97//1 112//1 99//1
f 99//1 113//1 101//1
f 101//1 114//1 103//1
f 103//1 115//1 105//1
f 105//1 87//1 88//1
f 35//1 116//1 107//1
f 107//1 117//1 108//1
f 108//1 118//1 109//1
f 109//1 119//1 110//1
f 110//1 120//1 111//1
f 111//1 121//1 112//1
f 112//1 122//1 113//1
f 113//1 123//1 114//1
f 114//1 124//1 115//1
f 115//1 85//1 87//1
f 33//1 25//1 116//1
f 116//1 125//1 117//1
f 117//1 126//1 118//1
f 118//1 127//1 119//1
f 119//1 128//1 120//1
f 120//1 129//1 121//1
f 121//1 130//1 122//1
f 122//1 131//1 123//1
f 123//1 132//1 124//1
f 124//1 86//1 85//1
f 56//4 133//4 134//4
f 134//4 135//4 136//4
f 136//4 137//4 138//4
f 138//4 139//4 140//4
f 140//4 141//4 142//4
f 142//4 143//4 144//4
f 144//4 145//4 146//4
f 146//4 147//4 148//4
f 148//4 149//4 150//4
f 150//4 28//4 12//4
f 68//4 151//4 133//4
f 133//4 152//4 135//4
f 135//4 153//4 137//4
f 137//4 154//4 139//4
f 139//4 155//4 141//4
f 141//4 156//4 143//4
f 143//4 157//4 145//4
f 145//4 158//4 147//4
f 147//4 159//4 149//4
f 149//4 26//4 28//4
f 66//4 160//4 151//4
f 151//4 161//4 152//4
f 152//4 162//4 153//4
f 153//4 163//4 154//4
f 154//4 164//4 155//4
f 155//4 165//4 156//4
f 156//4 166//4 157//4
f 157//4 167//4 158//4
f 158//4 168//4 159//4
f 159//4 23//4 26//4
f 63//4 86//4 160//4
f 160//4 132//4 161//4
f 161//4 131//4 162//4
f 162//4 130//4 163//4
f 163//4 129//4 164//4
f 164//4 128//4 165//4
f 165//4 127//4 166//4
f 166//4 126//4 167//4
f 167//4 125//4 168//4
f 168//4 25//4 23//4
f 82//5 169//5 170//5
f 170//5 171//5 172//5
f 172//5 173//5 174//5
f 174//5 175//5 176//5
f 176//5 177//5 178//5
f 178//5 179//5 180//5
f 180//5 181//5 182//5
f 182//5 183//5 184//5
f 184//5 185//5 186//5
f 186//5 20//5 14//5
f 83//5 187//5 169//5
f 169//5 188//5 171//5
f 171//5 189//5 173//5
f 173//5 190//5 175//5
f 175//5 191//5 177//5
f 177//5 192//5 179//5
f 179//5 193//5 181//5
f 181//5 194//5 183//5
f 183//5 195//5 185//5
f 185//5 18//5 20//5
f 84//5 196//5 187//5
f 187//5 197//5 188//5
f 188//5 198//5 189//5
f 189//5 199//5 190//5
f 190//5 200//5 191//5
f 191//5 201//5 192//5
f 192//5 202//5 193//5
f 193//5 203//5 194//5
f 194//5 204//5 195//5
f 195//5 15//5 18//5
f 4//5 205//5 196//5
f 196//5 207//5 197//5
f 197//5 208//5 198//5
f 198//5 209//5 199//5
f 199//5 210//5 200//5
f 200//5 211//5 201//5
f 201//5 212//5 202//5
f 202//5 213//5 203//5
f 203//5 214//5 204//5
f 204//5 17//5 15//5
f 81//5 170//5 1//5
f 1//5 172//5 215//5
f 215//5 174//5 216//5
f 216//5 176//5 217//5
f 217//5 178//5 218//5
f 218//5 180//5 219//5
f 219//5 182//5 220//5
f 220//5 184//5 221//5
f 221//5 186//5 222//5
f 222//5 14//5 13//5
f 55//4 134//4 223//4
f 223//4 136//4 224//4
f 224//4 138//4 225//4
f 225//4 140//4 226//4
f 226//4 142//4 227//4
f 227//4 144//4 228//4
f 228//4 146//4 229//4
f 229//4 148//4 230//4
f 230//4 150//4 231//4
f 231//4 12//4 10//4
f 232//1 90//1 13//1
f 13//1 92//1 222//1
f 222//1 94//1 221//1
f 221//1 96//1 220//1
f 220//1 98//1 219//1
f 219//1 100//1 218//1
f 218//1 102//1 217//1
f 217//1 104//1 216//1
f 216//1 106//1 215//1
f 215//1 3//1 1//1
